<?xml version="1.0" encoding="UTF-8"?>
<svg version="1.1" viewBox="0 0 1024 1024" width="1024" height="1024" xmlns="http://www.w3.org/2000/svg">
<path transform="translate(504,143)" d="m0 0 2 3 1 13 2 48 11 14 10 13 14 17v2h2l6 8 3 5v101l1 15 3 1 15-8 13-8 1-1h5v-43l9-6h2v-18l20-12 28-17 3-2 6 1 13 8 19 12 19 11v18l6 2 6 4 1 43 1 6 1 18 1 3h12l29 4 23 5 20 6 19 9 16 10 10 9 8 8 10 16 5 12 4 17v25l-5 22-8 19-3 6-3 8-2 10-5 12-6 9-5 5-3 4h-2v2h-2l-2 4-7 8-3 6h-2v2h-2l-1 6-3 6-6 2v2h-4l-1 2-14 7-3 1v2l-4 1v2l-14 11-8 7h-2v2l-8 7-9 12-4 8-2 6v17l5 13 8 10 8 6 3 3-1 3h-310l-50 1h-35l-36-1-40-4-15-2-9-1-14-5-3-4v-4h-7v-2l-4-1-10-4-8-3v-2h-4v-2l-6-2-21-9-16-8-12-9-8-7-8-11-6-14-2-11v-15l2-12 5-13 7-14 8-11 8-10 9-10 13-13 22-18 15-11 11-7 5-2 1-3h2l1-2 1-17 1-6 1-22 7-6 9-11 7-7 6-8 10-4 16-5 11-4h2l-1-8v-21l1-43 10-7 18-11 30-19 5 1 16 10 22 13 10 6v37h10v-126l45-45 8-7 5-5 1-11 1-32 1-17z" fill="#04254B"/>
<path transform="translate(723,324)" d="m0 0h1l1 43 1 6 1 18 1 3h12l29 4 23 5 20 6 19 9 16 10 10 9 8 8 10 16 5 12 4 17v25l-5 22-8 19-3 6-3 8-2 10-5 12-6 9-5 5-3 4h-2v2h-2l-2 4-7 8-3 6h-2v2h-2l-1 6-3 6-6 2v2h-4l-1 2-14 7-3 1v2l-4 1v2l-14 11-8 7h-2v2l-8 7-9 12-4 8-2 6v17l5 13 8 10 8 6 3 3-1 3h-310l-50 1h-35l-36-1-40-4-15-2-9-1-14-5-3-4v-4h-7v-2l-4-1-10-4-8-3v-2h-4v-2l-6-2-21-9-4-2 3-1 18 6 20 4 18 2h33l28-3 31-6 34-9 23-7 31-12 28-13 18-10 19-12 18-14 12-11 4-3-2 4-8 11-12 14-14 12-14 10-15 9-16 8-21 10-24 9-26 8-7 2 39-8 34-8 31-9 36-12 34-13 24-10 29-13 23-11 44-24 16-10 23-14 17-11 16-11 18-13 14-11 15-13 13-12 9-10 10-13 8-14 6-15 1-6v-11l-4-13-8-11-12-9-17-8-13-4-22-4-22-2 1 27 20 3 12 4 11 6 10 9 6 12 1 3v11l-4 13-8 14-10 13-16 16-28 22h-1z" fill="#FBFCFD"/>
<path transform="translate(416,409)" d="m0 0h69l5 28 9 35 12 36 7 18v3l5-5 16-17 7-8 24-28 13-15 9-11 12-15 10-13 6-8h81l-3 12-16 52-12 43-12 48-5 30v14l2 6 9 3-3 3-23 10-22 8-28 8-21 4h-15l12-38 11-30 10-30 14-37 4-11-9 10-9 11-10 11-9 11-9 10-7 9-13 15-11 12-7 8-10 10-7 8-22 22-8-16-10-23-14-41-10-34-4-14v-5h-2l-3 9-12 23-9 15-10 15-9 12-13 16-9 9-5 6-11 9-12 10-23 15-16 8-20 8-19 5-18 3h-21l-19-4-14-7-9-8-6-12-2-10 1-12 4-13 8-16 8-11 6-8h2l2-4 12-12 8-7 14-12 7-5 1-2-2-1h2l1-3h2l1-2 1-17 1-6 1-22 8-6-2 4-3 3h-2v57l-17 12-11 10-14 14-11 15-8 14-4 13v16l4 9 7 8 13 6 10 2h19l15-4 16-8 11-9 9-8 7-8 8-10 12-17 12-19 15-26 10-18 12-22 13-25 10-19 12-24 9-21z" fill="#FCFCFD"/>
<path transform="translate(603,503)" d="m0 0 1 2-5 12-15 41-11 32-10 28-10 31h14l21-4 31-9 29-11 13-6 2 1-9 6-47 25-26 12-16 7-29 12-29 11-36 12-35 10-39 9-30 6-4-1 28-8 23-8 21-9 19-9 14-8 14-9 10-8 14-12 9-11 6-8 4-6-11 11-17 13-14 10-21 12-17 9-25 11-33 12-40 11-28 6-27 4-12 1h-33l-24-3-21-5-11-4-8-2-14-9-11-9-10-13-6-14-2-11v-15l2-12 5-13 7-14 8-11 8-10 9-10 13-13 22-18 15-11 11-7 5-1-1 3-10 8-14 12-13 12-6 7-5 5-11 15-8 17-3 11-1 12 2 10 6 12 9 8 13 6 19 4h21l27-5 21-7 18-8 15-9 16-11 11-9 14-12 7-8 10-11 13-17 10-15 8-13 13-24 6-13h2l8 30 13 41 10 28 9 20 6 13 27-27 7-8 10-10 7-8 9-10 9-11 11-13 24-28 13-15z" fill="#05264C"/>
<path transform="translate(784,404)" d="m0 0h12l18 6 17 8 16 10 10 9 8 8 10 16 5 12 4 17v25l-5 22-8 19-4 2-1 5-7 11-10 13-8 10h-2l-2 4-8 8-8 7-4 2v2l-13 10-16 12-19 12-10 6-14 8-16 8-27 13-27 11-31 11-40 12-40 10-39 8-35 6-48 6-32 3-15 1-34 1h-51l-41-2-2-2h49l35-3 35-5 40-8 39-10 29-9 36-12 28-11 28-12 26-12 31-15 23-13 16-9 24-15 19-12 11-8 14-10 17-13 15-13 12-11 16-16 9-11 9-12 8-14 5-11 3-9 1-6v-17l-4-13-7-11-8-8-11-7-15-7-16-5z" fill="#FDA219"/>
<path transform="translate(441,264)" d="m0 0h1v127l-37 1-16 34-15 30-10 19-9 17-2 1-1-67-3 2-1 46-1 24-1 11-5 8h-2l-1-3-1-56-1-1h-6v28l-1 54-8 15-10 16-5 7-1-4-2-4-2-1v9l-4 4-5 3-5 1-1 6-1 16-5 7h-1v-16h-2v2l-9 6-9 7h-1l-1-29v-32h-4v89l-9 6-14 5-8-2-9-6-7-8-3-9v-8l4-16 4-8h-11l-4-4 8-12 9-11 12-12 12-11 15-10 1-57 6-5 2-5 14-15 6-8 10-4 16-5 11-4h2l-1-8v-21l1-43 10-7 18-11 30-19 5 1 16 10 22 13 10 6v37h10z" fill="#045697"/>
<path transform="translate(241,528)" d="m0 0h4l-1 3-10 8-14 12-13 12-6 7-5 5-11 15-8 17-3 11-1 12 2 10 6 12 9 8 13 6 19 4h21l27-5 21-7 18-8 15-9 16-11 11-9 12-10h10l8-8 9-11 11-13 7-10 4-7 4-9 10-19 3-3 1 7v20l2 27 1 8-6 8-15 23-9 12-9 11-15 15-17 13-16 10-23 12-24 9-19 5-22 4-10 1h-29v-1l25-7 21-8 23-10 25-12 16-9 12-8 13-10 10-9 8-7 11-11-1-6-5 4-4 5-8 7-10 9-16 11-11 6-15 8-11 4-24 8-13 2-1 1-9 1h-31l-25-6-12-4-14-9-5-5-5-7-4-16-9-7h-5l1-5 8-16 8-11 8-10 9-10 13-13 22-18 15-11 11-7z" fill="#0D5E9E"/>
<path transform="translate(842,427)" d="m0 0 6 2 8 7 9 9 10 16 5 12 4 17v25l-5 22-8 19-4 2-1 5-7 11-10 13-8 10h-2l-2 4-8 8-8 7-4 2v2l-13 10-16 12-19 12-10 6-14 8-16 8-27 13-27 11-31 11-40 12-40 10-39 8-35 6-48 6-32 3-15 1-34 1h-51l-41-2-2-2h49l35-3 35-5 11-2h10l1 1h12l41-6 38-7 12-3 20-4 30-8 24-7 23-7 35-12 32-13 20-9 25-12 23-13 21-13 16-11 16-12 14-12 13-12 13-14 10-13 10-15 10-21 5-19v-26l-2-9-7-14-8-10-7-7-4-3z" fill="#E05B0A"/>
<path transform="translate(791,655)" d="m0 0 2 1-11 10-5 4-6 7-5 4h-2v2l-8 7-9 12-4 8-2 6v17l5 13 4 5 2 5 9 8 2 2-384 1-35-1-34-2-9-1v-1l32 1h73l41-2 42-4 42-6 42-8 37-9 29-8 36-12 32-13 24-11 20-10 27-16 12-8z" fill="#06284F"/>
<path transform="translate(655,268)" d="m0 0 6 1 13 8 19 12 19 11v18h-2l-1 3-7-1-40-20-5-2v93l-47 1-6 9-8 11h-2l-2 5-16 20h-7l-4 2v-5l6-4 1-5-6 4h-2l1-8 3-4-4 1-2-1-1-7h-1l1-15-2-3v-9l15-8 13-8 1-1h5v-43l9-6h2v-18l20-12 28-17z" fill="#F19432"/>
<path transform="translate(441,264)" d="m0 0h1v127l-37 1-16 34-15 30-10 19-9 17-2 1v-75l-28 13-5 1-1-8v-21l1-43 10-7 18-11 30-19 5 1 16 10 22 13 10 6v37h10z" fill="#F9B035"/>
<path transform="translate(501,216)" d="m0 0h1l1 7v140l-13 5-19 8-16 8-2 6 12-6h1v7h-18v-124l8-7 31-31 8-7z" fill="#93C6EB"/>
<path transform="translate(504,143)" d="m0 0 2 3 1 13 2 48 11 14 10 13 14 17v2h2l6 9h-3l-2 3 2 2v88l-1 22-8-6-13-10-8-6-3-2v-11l6 2 11 9 10 7 3 1 1-4-4-2-9-7-12-9-6-6v-10l4 1 10 8 12 10-1-5-11-10-6-4-8-8v-11l4 2 12 10 8 7 2 2-1-5-5-5-13-12-7-6v-11l4 2 17 16 5 6 2 1-4-8-24-24v-10l4 1 7 7 9 11 6 7v-5l-11-12-13-15-2-2-1 24-1 49-2 3-5-2-1-3-1-112-1-1-2 4-1-6-12 12-8 7-31 31h-2v124h18l-1-6-10 5h-2l1-6 10-6h3v14l-14 1-3 1-3-2-1-7-4-1v-121l44-44 8-7 5-5 1-11 1-32 1-17z" fill="#045697"/>
<path transform="translate(428,531)" d="m0 0h1l1 7v20l2 27 1 8-6 8-15 23-9 12-9 11-15 15-17 13-16 10-23 12-24 9-19 5-22 4-10 1h-29v-1l25-7 21-8 23-10 25-12 16-9 12-8 13-10 10-9 8-7 11-11-1-8 13-17 13-20 5-9 9-17v-3l-5 8h-3l2-5 10-19z" fill="#045799"/>
<path transform="translate(657,298)" d="m0 0 9 3 38 19 5 1 3 3 7 4v62l-2 2-106 1-4 3 2-4 1-1h47zm53 20 6 1v1h-5l-1 2-1-2z" fill="#045B9E"/>
<path transform="translate(654,299)" d="m0 0h3v92l-47 1-10 15h-1v-80l16-8 27-14z" fill="#B0D5F0"/>
<path transform="translate(635,585)" d="m0 0h9l2 1 3 6 2 1 2 15 2 6 9 3-3 3-23 10-22 8-28 8-21 4h-15l3-10 3-1 2 1 12-36 7-14 5-1 6 1 27-4z" fill="#E2E3E4"/>
<path transform="translate(735,601)" d="m0 0h2v2l3 1-5 5-17 11-19 12-25 15-18 10-14 8-19 9-16 8-22 10-2 1 25-10 12-5h11l8-4 4-1h7l2 2-5 4-16 8-20 9-58 21-18 5-23 6-12 3-1 2-43 8-36 5h-12l-6-2v-1l36-8 41-11 37-12 37-14 31-13 28-13 31-15 23-13 16-9 24-15 19-12z" fill="#F58F15"/>
<path transform="translate(729,406)" d="m0 0h13l22 3 19 5 16 7 11 7 8 7 7 11 3 11v11l-2 9h-8l-10 2-11 5-6-1-3-16-6-12-10-9-15-7-18-4-9-1-1-1z" fill="#05599B"/>
<path transform="translate(740,733)" d="m0 0 2 2 4 11 4 5 2 5 9 8 2 2h-124l-60-1v-1l9-1 5-3 11-1 9-3 13-3 12-6 7-5h5l1-3 12-4h25l3-1h45l3 2z" fill="#073F7A"/>
<path transform="translate(441,264)" d="m0 0h1v127l-37 1-16 34-8 16h-1v-110l-23 14-3 2h-3l-1-2-3-2 5-5 12-7 14-9 5 1 16 10 22 13 10 6v37h10z" fill="#F48E14"/>
<path transform="translate(326,436)" d="m0 0 4 1-8 4h-2v63l-1 37h-1v-5l-8 1-1-32-1-10h-5l-1-1-1 13v24l-1 2-6 1v-3l-2-1 2-2v-34l-1-1h-7l-1 13v28l2 1-4 2h-4l-1-16-1-35-3 6h-4l-1 6-1 42-7 1-2 1-1-7v-54l7-6 7-8 13-15 3-3 9-3 19-6 8-3z" fill="#C1DCF0"/>
<path transform="translate(330,582)" d="m0 0 14 1 10 2h8l6-2 9 1 1 4-9 10-1 2h-2l-2 4-9 9-11 9-12 9-14 9-11 7-16 7-19 6-16 2-8-1v-4l8-3 5-2v-2l2-2 4-3 10-7 14-12 9-10 3-4 6-1 2-4 4-6 6-7 6-9z" fill="#E2E3E4"/>
<path transform="translate(251,552)" d="m0 0h2v89l-9 6-14 5-8-2-9-6-7-8-3-9v-8l4-16 8-14 11-14 17-17z" fill="#F9FBFD"/>
<path transform="translate(512,364)" d="m0 0 6 1 11 6 16 10 9 5v14l-1 1h-5l-1 42-1 13h-2v-16h-2l-2-29h-3l-1 1v33l-1 14h-2l-2-5-2-16-1-42h-4v32l-2 4h-5v36l-2-4-10-40-2-15-1-2-1-16h-29v-10l5-3 27-11z" fill="#045698"/>
<path transform="translate(277,485)" d="m0 0h1l1 36v16l5-2 1-1-1-8v-20l1-15 1 2h7l1-2 1 3v34l-2 2 2 3h5v-26l1-15 2 2h6l1 11 1 31h7l1-32h1v38l-5 5-5 6-16 10-7 5h-2v19l-4 1-1-15-11 6h-5l-6 3v-47h1l1 5h8v-42l1-8 1 2 4-1 2-5z" fill="#3786C6"/>
<path transform="translate(501,216)" d="m0 0h1v80h-1l-1-13-5 2v-50l-8 7-12 11-4 5-8 7-8 8h-2l1 7 7-8 8-7 17-17 5-2v11l-13 12-15 14-9 8v6l4-5 8-7 8-8 8-7 7-6h2v12l-12 10-8 7-16 13h-2v6l5-3 10-9 10-8 11-9h2v12l-11 8-13 11-13 9-1 6 34-26h2v-2h2v12l-15 12-12 8-16-2v-64l8-7 31-31 8-7z" fill="#DDE8EF"/>
<path transform="translate(150,630)" d="m0 0 4 2 6 5 4 16 6 8v2l4 2 13 8 19 6 18 4h31l9-1 7-2 12-2 10-4 9-3 4 1-5 4-12 8-10 7-11 4-20 4h-29l-24-4-14-6-5-4-7-4-10-5-4-3-5-2-3-8-1-14 2-14z" fill="#053E79"/>
<path transform="translate(722,397)" d="m0 0h1v107l-8 6-6 10-7 6-6 8-5 5-6 4h-1v-7l10-43 13-49 12-42z" fill="#063E79"/>
<path transform="translate(850,486)" d="m0 0h1l-1 9-8 20-10 17-10 14-9 10-7 8-11 11-11 9-13 10-20 14-17 11-28 17-18 10-29 15-27 13-31 13-23 9-3-1 21-9 20-9 15-8 16-8 22-12 27-16 19-12 21-14 3-3-3-3 4-4 14-10 13-10 3-3 2 1-4 5 2 1 11-9 10-9 8-7 19-19 11-14 9-13 8-14z" fill="#F9AF34"/>
<path transform="translate(422,549)" d="m0 0 1 4-9 17-8 14-8 12-9 12-9 11-7 8-8 7-10 9-16 11-11 6-15 8-11 4-24 8-13 2-1 1-9 1h-31l-25-6-8-4-5-4v-3l5 1 17 6 14 2h24l24-4 24-8 11-5 14-7 15-9 14-10 13-11 13-12 7-7 9-11 11-13 7-10 4-7 2-4 4-2 3-6z" fill="#5299D2"/>
<path transform="translate(503,215)" d="m0 0 2 4 1 1 1 112 1 3 4 1 1-2 2-93h1l1 20 11 12 7 8 8 9v6l-5-5-11-12-7-8-4-2 1 10 25 25 2 7-3-1-7-8-16-15-2-1 1 11 11 10 8 7 1 3 4 2 2 2v5l-7-6-20-16 1 11 7 6v2l4 2 10 8 5 5v5l-8-6-13-11-6-3 1 10 7 7 11 8 12 9-1 5-6-3-12-9-7-6-5-2v11h-2l-1 5-4 2-1 7-17 6-14 6-4 2-1 10h29l-1 11-17-4-10-1-5-2-11-1v-1h10v-16l13-6 18-7 5-1z" fill="#063A71"/>
<path transform="translate(657,298)" d="m0 0 9 3 38 19-2 5-2 6-6-2-8-4h-5v2l6 2 1 1v13h-8l-2 1-1 14-6-1-1 4 6 2 1 7v7l-7-2-3-2-1 18h-9z" fill="#0567AB"/>
<path transform="translate(334,426)" d="m0 0 3 1-3 6-11 6-7 2-21 7-8 3-11 12-7 8-9 10h-2v71l-7 1-11 9-15 15-11 15-3 3h-11l-4-4 8-12 9-11 12-12 12-11 15-10 1-57 6-5 2-5 14-15 6-8 10-4 16-5 20-7z" fill="#07407A"/>
<path transform="translate(506,216)" d="m0 0h2v2h2l5 7 2 1v3l3 1 7 9 8 11 10 13-2 4-4 2-9-10-7-9h-3l10 14 9 10 3 4 1-6h5v23l-4-1v-4l-4-2-7-8-10-11-7-8-1 24-1 49-2 3-5-2-1-3z" fill="#066DB1"/>
<path transform="translate(502,223)" d="m0 0h1v140l-13 5-19 8-16 8-2 6 12-6h1v7h-18v-35l7-2 34-21h2v-8l3-1 2 30h5z" fill="#91C5EA"/>
<path transform="translate(475,587)" d="m0 0h44l3 2-2 5-4 4h-2l-2 4-6 8 1 4-27 27-11-22-2-9-1-5-1-10-1-6z" fill="#E2E3E4"/>
<path transform="translate(595,697)" d="m0 0 5 1v2l-30 11-30 10-40 10-1 2-43 8-36 5h-12l-6-2v-1l36-8 41-11 30-10h5l4 2 16-3 30-12 7 1h12z" fill="#F08211"/>
<path transform="translate(441,264)" d="m0 0h1v127h-27l-11-6v-5l-6-2-10-6 2-4 10 2 4 5 1 4 10 4h2l2-6-6-2-24-12v-7l17 8 10 4 1-14-25-15-12-6-5 2-21 13h-3l-1-2-3-2 5-5 12-7 14-9 5 1 16 10 22 13 10 6v37h10z" fill="#E06F2A"/>
<path transform="translate(655,268)" d="m0 0 6 1 13 8 19 12 19 11v18h-2l-1 3-7-1-40-20-7-2v-5h2l1-2v2l7-1 1-3 4-3 1-3-5-2-8-4v9h-1v-10h-2v2l-16 9-7 4h-3v2l-5-1-1-4 9-6 20-12z" fill="#E16316"/>
<path transform="translate(277,485)" d="m0 0h1l1 36v16l5-2 1-1-1-8v-20l1-15 1 2h7l1-2 1 3v34l-2 2 2 5-7 5h-3v17l-4-1-1 3-1-6v-9l-7 4-3 2-1 20 3 1-5 5-6 3-2 3v-47h1l1 5h8v-42l1-8 1 2 4-1 2-5z" fill="#5399D2"/>
<path transform="translate(592,372)" d="m0 0h1l1 8v34l-8 11-10 12h-7l-4 2v-5l6-4 1-5-6 4h-2l1-8 3-4-4 1-2-1-1-7h-1l1-12 1-9 9-6 18-10z" fill="#5198D2"/>
<path transform="translate(710,318)" d="m0 0 6 1v1h-5l-1 2-1-2zm-6 3h5l3 3 7 4v62l-2 2h-39v-1l19-1 3-2v3h9l-1-12-5-2 1-2v-2l4 1 1-15-9-3v10l-2 2v-15l-6-1-10-6-3-1 1-3 8 1-1-13-6-3v-2l5-1 14 7 1-6z" fill="#04599B"/>
<path transform="translate(497,213)" d="m0 0 4 2-2 4-10 10-8 7-31 31h-2v124h18l-1-6-10 5h-2l1-6 10-6h3v14l-14 1-3 1-3-2-1-7-4-1v-121l44-44 5-4z" fill="#124981"/>
<path transform="translate(326,436)" d="m0 0 4 1-10 5-1 47h-1l-1-5-7-1v-19l-9 6-1 15h-4v-12l-10 7-21-2-4 4-1 7h-1v-8l15-16 9-11 5-5 9-3 19-6 8-3z" fill="#DAEEF9"/>
<path transform="translate(654,299)" d="m0 0h3v51l-1 29-1-3-6 1-2-61-16 9-7 3-16 8-1 23h-7l-1-32 16-8 27-14z" fill="#FDFDFD"/>
<path transform="translate(363,611)" d="m0 0h8v3l-14 13-17 13-17 11-24 12-16 6-18 5-19 3h-24l-14-2-17-6-3-2v-2l-5-2 2-4h4l14 7 19 4h21l27-5 21-7 18-8 15-9 16-11 11-9z" fill="#074581"/>
<path transform="translate(777,439)" d="m0 0h10l4 4 4 8v2l8-1h12l10 1 1-2 2 6v11l-2 9h-8l-10 2-11 5-6-1-3-16-6-12-10-9-6-3v-2l5-1z" fill="#063F7A"/>
<path transform="translate(305,558)" d="m0 0 2 1 2 14-4 4-1-5-1-3-2-1v9l-4 4-5 3-5 1-1 6-1 16-5 7h-1v-16h-2v2l-9 6-9 7h-1l-1-29 4-4 5-2 5-1 6-4h3l2 14h3v-19l6-4h3v2h7v-6z" fill="#053E79"/>
<path transform="translate(735,601)" d="m0 0h2v2l3 1-5 5-17 11-19 12-25 15-18 10-14 8-19 9-16 8-22 10-10 2-5-2 2-2 25-11 34-16 23-12 23-13 26-16 22-14z" fill="#FDA41C"/>
<path transform="translate(265,477)" d="m0 0 15 1 5 2v54l2 1-4 2h-4l-1-16-1-35-3 6h-4l-1 6-1 42-7 1-2 1-1-7v-54h3z" fill="#BFDBEF"/>
<path transform="translate(309,657)" d="m0 0 3 1-1 2 4 2 2 4-11 5-22 7-6 2-13 2-1 1-9 1h-31l-25-6-8-4-5-4v-3l5 1 17 6 14 2h24l24-4 24-8 11-5z" fill="#217DC0"/>
<path transform="translate(489,283)" d="m0 0h2v12l-11 8-13 11-13 9-1 6 34-26h2v-2h2v12l-15 12-12 8-16-2v-21l8 1 7-7 14-11z" fill="#C0DCF0"/>
<path transform="translate(512,364)" d="m0 0h4v13l-1 26-2-2-4 2-2-19-2 15-1 3h-2l-1-11h-29v-10l5-3 27-11z" fill="#AAD2F0"/>
<path transform="translate(599,330)" d="m0 0h1v29h7l1-16h1l1 11 3-1-1 4-1 1-1 17h3v-2l6-2 1-3 1-15h1l1 15 9-4 1-12 2-1v14l1 2v20l-1 3h-2v-22h-2v2l-5 3h-3v18l-13 1-10 15h-1z" fill="#8AC0E7"/>
<path transform="translate(334,426)" d="m0 0 3 1-3 6-11 6-7 2-21 7-8 3-11 12-7 8-9 10h-2v52l-2-4h-2v-51l5-5 2-5 14-15 6-8 10-4 16-5 20-7z" fill="#194F85"/>
<path transform="translate(657,298)" d="m0 0 9 3 6 3-1 7-4 4h-2l1 34-1 42h-8z" fill="#3786C6"/>
<path transform="translate(378,332)" d="m0 0h1v41h-1l-1-10-4-1-1 4v-8l-8 4h-2v8h-4v-5l-4-1h-18l-6-1 4-4 20-12 23-14z" fill="#FEFEFE"/>
<path transform="translate(502,223)" d="m0 0h1v140l-9 4h-4v-11l-23 13-11 6h-3v-6l19-9 17-10h2v-12l-8 4-20 13-10 6v-5l5-4 25-15 6-4h2v-8l3-1 2 30h5z" fill="#4D95D0"/>
<path transform="translate(504,143)" d="m0 0 2 3 1 13 2 48 11 14 10 13 6 7-1 5-1 2h-2l-6-9-7-9-2-1v-3l-3-1-4-5v-2h-2v-2h-2l-1 4-1-1-2 4-1-7-4-2-5 1 6-7 1-1 1-11 1-32 1-17z" fill="#194E83"/>
<path transform="translate(388,382)" d="m0 0 6 2 11 4v2l2 1-3 3-13 28-10 20h-1v-44l7-4z" fill="#EF8110"/>
<path transform="translate(494,719)" d="m0 0 3 1-7 5-9 11-25 5-36 5h-12l-6-2v-1l36-8 41-11z" fill="#F08614"/>
<path transform="translate(307,697)" d="m0 0h10l1 2-22 8-25 6-23 3h-29v-1l25-7 10-3h9l12-4 15-3z" fill="#053E79"/>
<path transform="translate(391,338)" d="m0 0 10 5 17 11-1 11-1 3-5-1-20-9-1-1-1 6 9 3 8 5 13 6-1 6-3 1-10-4-4-8-4-2-7-1-2 2v-16z" fill="#EF8110"/>
<path transform="translate(363,611)" d="m0 0h8v3l-14 13-17 13-17 11-24 12-5 2-4-1-2-2-3-1 8-4 16-7 15-9 16-11 11-9z" fill="#063F78"/>
<path transform="translate(655,277)" d="m0 0h1v15h-2v2l-29 15-11 6h-3v-12l3-3 10-6 5-1v-2l12-6z" fill="#F9B542"/>
<path transform="translate(750,753)" d="m0 0 8 6 6 4 1 4-1 1h-283l-82-1v-1l362-1-11-10z" fill="#A7CCE9"/>
<path transform="translate(493,235)" d="m0 0h2v46h-1l-1-8-2 3v-12l-10 8-16 15-9 8-3 3v-7l7-7 8-7 15-14 7-6 1-11-8 6-20 20-5 4-5 5v-8l8-7 13-13 17-16z" fill="#96C8EC"/>
<path transform="translate(489,320)" d="m0 0h2v13l-25 15-11 7-5 1h-2v-25h12l3 3-7 5h-2l1 5 8-6 13-9z" fill="#A9D2F0"/>
<path transform="translate(346,343)" d="m0 0 4 2 2 4-19 12-4 1-1 2h-3l1 66-6 2-1-8v-21l1-43 10-7z" fill="#F9AA3C"/>
<path transform="translate(515,377)" d="m0 0h1v84l-2-1-9-36-2-15-1-7h2l2-18 2-3 2 21 4-2z" fill="#045798"/>
<path transform="translate(515,241)" d="m0 0h1l1 20 11 12 7 8 8 9v6l-5-5-11-12-7-8-4-2 1 10 25 25 2 7-3-1-7-8-16-15-2-1 1 11 11 10 8 7 1 3 4 2 2 2v5l-7-6-20-16v12h-1l-1-9v-22z" fill="#053D77"/>
<path transform="translate(319,442)" d="m0 0h1v62l-1 37h-1v-5l-8 1v-54h8z" fill="#B7D7EF"/>
<path transform="translate(784,404)" d="m0 0h12l18 6 17 8 15 9-3 1 2 6 5 4-2 6-4 2-1 3-6-12-9-10-11-8-17-8-16-5z" fill="#F7A43A"/>
<path transform="translate(561,398)" d="m0 0 1 2h9l-3 3-2 1v8l5-3v-4h6l-1 6 6-1-1 3-3 1v4l4 1 1-5 3 1v6l2 1-9 11-3 4h-7l-4 2v-5l6-4 1-5-6 4h-2l1-8 3-4-4 1-2-1-1-7h-1z" fill="#3787C7"/>
<path transform="translate(369,447)" d="m0 0h1v17l-15 28-2 1v-44h5l2 4 1-4z" fill="#EB730C"/>
<path transform="translate(592,372)" d="m0 0h1l1 8v23l-1-2h-5l-1-2v-10l-21 9h-4v-9l9-6 18-10z" fill="#B1D6F1"/>
<path transform="translate(405,391)" d="m0 0h37l-2 4-7 3-17 2-8 3-5 5-2 3-3 12-2 4-7 2-2 4-2-1 17-35z" fill="#053C75"/>
<path transform="translate(516,241)" d="m0 0 5 5 2 3-3 1 10 14 9 10 3 4 1-6h5v23l-4-1v-4l-4-2-7-8-10-11-7-8z" fill="#056BAF"/>
<path transform="translate(710,318)" d="m0 0 6 1v1h-5l-1 2-1-2zm-6 3h5l3 3 6 3v43l-6 2-1-1v-34l-5-2-6-3 1-7z" fill="#076EB1"/>
<path transform="translate(589,367)" d="m0 0h5v3h4l1 11v27l-3 4h-2l-1-32-1-7-16 8-13 8-1 6-3-3v-9l15-8 10-6z" fill="#E47125"/>
<path transform="translate(568,692)" d="m0 0 8 1 5-1-1 2-6 4-13 5-14 6-16 6-13 2-5-1v-3l30-11z" fill="#F59318"/>
<path transform="translate(672,305)" d="m0 0 6 2 26 13-2 5-2 6-6-2-23-11-5-2v16h-1v-17l5-4z" fill="#3484C5"/>
<path transform="translate(489,246)" d="m0 0h2v11l-13 12-15 14-9 8h-2l1-7 4-8 15-14 14-14z" fill="#E1E3E6"/>
<path transform="translate(301,492)" d="m0 0 2 2h6l1 11 1 31h7l1-32h1v38l-10 10-8-1 3-6-1-4 4-4v-22l-5 1h-1l-1 10h-1v-19z" fill="#549AD3"/>
<path transform="translate(655,276)" d="m0 0 8 2 8 5-1 4-7 6h-6l-2 5 2 1-23 11-17 9-2-1-1-4 27-14 11-6h2l1-5z" fill="#F08513"/>
<path transform="translate(516,342)" d="m0 0 6 2 11 9 10 7 3 1 1-4-2-1h3v21l-8-6-13-10-8-6-3-2z" fill="#045697"/>
<path transform="translate(559,398)" d="m0 0h2v11l2 4-1 4 5-1 3-1v2l-4 4-2 8 6-4h2v5l-6 4v4l3-2 7 1-6 8-7 7-1 2h-2l-2-6v-46z" fill="#053F7A"/>
<path transform="translate(489,283)" d="m0 0h2v12l-11 8-13 11-5 3-5-2-2-3 8-8 14-11z" fill="#D9EDF9"/>
<path transform="translate(500,230)" d="m0 0h1l1 7v59h-1l-1-13-5 2v-50l-2-1 3-3z" fill="#DBEFFA"/>
<path transform="translate(599,330)" d="m0 0h1v29h7l1 35-6 10-3 3z" fill="#E2E3E4"/>
<path transform="translate(309,657)" d="m0 0 3 1-1 2 4 2 2 4-11 5-19 6h-5l-4-3v-2l-3-1 19-7 11-5z" fill="#3686C6"/>
<path transform="translate(305,558)" d="m0 0 2 1 2 14-4 4-1-5-1-3-2-1v9l-4 4-5 3-5 1-1 6h-1v-23l6-4h3v2h7v-6z" fill="#053F7A"/>
<path transform="translate(506,216)" d="m0 0 2 1v88l5-2v-8h1v39l-2 3-5-2-1-3z" fill="#04589A"/>
<path transform="translate(500,280)" d="m0 0h1l1 16v42h-1l-1-5-5-1v-47l5-2z" fill="#C2DDF0"/>
<path transform="translate(293,452)" d="m0 0h25v16h-7l-2-7-1-1h-13l-13 3h-3l1-5 2-3z" fill="#E2E3E4"/>
<path transform="translate(718,328)" d="m0 0h1v62l-2 2h-39v-1l19-1 3-2v3h9l-1-12-5-2 1-2v-2l4 1 1-16 2 1 1 12 6-1z" fill="#044F8E"/>
<path transform="translate(281,759)" d="m0 0 15 1 12 1 2 2 34 2 35 1 75 1v1l-50 1h-35l-36-1-40-4v-2l-11-1z" fill="#E9F2F8"/>
<path transform="translate(277,485)" d="m0 0h1v35l-1 2h-6l-1-1-1 7h-1v-30l1-8 1 2 4-1 2-5z" fill="#549AD3"/>
<path transform="translate(488,338)" d="m0 0h3v12l-19 11h-3v-2h-11v-2l24-15z" fill="#A8D1F0"/>
<path transform="translate(186,667)" d="m0 0 5 1 17 6 14 2 21 1-2 1v4 1h-20l-22-5-8-4-5-4z" fill="#237FC2"/>
<path transform="translate(495,720)" d="m0 0 8 1h19l5 1-2 1v2l-25 6-1 2-15 3-3-1 9-11z" fill="#EC760D"/>
<path transform="translate(258,481)" d="m0 0h1l1 32 7-1 1-2v30l-7 1-2 1-1-7z" fill="#91C5EA"/>
<path transform="translate(308,464)" d="m0 0h2v41h-1l-1-10h-5l-1-1-1 13h-1v-37z" fill="#93C6EB"/>
<path transform="translate(494,254)" d="m0 0h1v27h-1l-1-8-2 3v-12l-10 8-16 15-9 8-3 3v-7l7-7 8-7 15-14 5-4 6 1z" fill="#97C8EC"/>
<path transform="translate(326,436)" d="m0 0 4 1-10 5-1 30h-1l-1-19h-24l-6 2-4-1 5-5 9-3 19-6 8-3z" fill="#F0F6FA"/>
<path transform="translate(356,430)" d="m0 0h1v11l4-2 3-6 4 1 2 1 2 14 4 1-2 6-4 5-1-5v-8l-8 1-1 6-2-3v-3h-5v-15z" fill="#F79A1C"/>
<path transform="translate(380,333)" d="m0 0 5 1 6 4-3 25-6 5-2 2z" fill="#FDA218"/>
<path transform="translate(319,542)" d="m0 0h1v13l-10 17h-2l-2-13-5 1v6h-7l-1-3 15-10h2l2-4 4-5z" fill="#066FB3"/>
<path transform="translate(489,320)" d="m0 0h2v13l-16 10-4-1-5-3 3-5 17-12z" fill="#BEDBEF"/>
<path transform="translate(679,345)" d="m0 0 4 1 14 8v14l-6-2-11-5-1-4z" fill="#237FC2"/>
<path transform="translate(285,491)" d="m0 0 1 2h7l1-2 1 3v24l-2-1h-7l-1 9h-1v-20z" fill="#549AD3"/>
<path transform="translate(308,513)" d="m0 0h1v24l-4 4 1 5-5 5h-2l2-37 6 1z" fill="#3786C6"/>
<path transform="translate(471,381)" d="m0 0h1v10h29l-1 11-17-4-10-1-5-2-11-1v-1l14-1z" fill="#05417D"/>
<path transform="translate(657,298)" d="m0 0 9 3 6 3-1 7-4 4h-2l-1 4-5-2-1 32h-1z" fill="#5198D1"/>
<path transform="translate(276,544)" d="m0 0h3l1 9v11l-9 6h-3v-20z" fill="#045B9D"/>
<path transform="translate(631,368)" d="m0 0h2v22l4-1 1-3 6-3-1 6 3 2h-23v-18l6-3h2z" fill="#E2E5E7"/>
<path transform="translate(516,269)" d="m0 0 4 1 7 7 9 11 3 3v4l-5 2-18-18z" fill="#056BAF"/>
<path transform="translate(611,392)" d="m0 0h20l5 1-3 2-8 3-10 3-14 9-3 1 1-4 7-11z" fill="#073F7A"/>
<path transform="translate(447,268)" d="m0 0h1v123h18l-1-6-10 5h-2l1-6 10-6h3v14l-14 1-3 1-3-2z" fill="#0B6AAD"/>
<path transform="translate(430,737)" d="m0 0h8l4 2v2l11-3h10l-2 2-41 6h-12l-6-2v-1z" fill="#ED7C11"/>
<path transform="translate(524,388)" d="m0 0 5 2v5l-5 1v32l-2 4h-5v36l-2-4 1-51 6 1 1-23z" fill="#053E79"/>
<path transform="translate(679,365)" d="m0 0 10 4 1 2 7 3v11l-7-1-11-6z" fill="#247FC2"/>
<path transform="translate(584,389)" d="m0 0 3 1-1 15-4-1 1-8-6 1v8h-6l1 4-3 3-4 1v-9l5-3-8-1v-2l14-5z" fill="#549AD3"/>
<path transform="translate(515,377)" d="m0 0h1v40l-1 1h-5l-2-6-1-13-1 2-1 12-2-4-1-7h2l2-18 2-3 2 21 4-2z" fill="#3287C7"/>
<path transform="translate(289,564)" d="m0 0 1 2-5 2v19l-4 1-1-15-11 6h-5l-5 2 2-4 8-4 2-4 6-4 8 1z" fill="#227EC1"/>
<path transform="translate(295,534)" d="m0 0h1l1 19-10 7-2-1v-19l7-4z" fill="#045A9C"/>
<path transform="translate(369,447)" d="m0 0h1v17l-6 11-3-1-1-2v-9l1-3-3 2-3-1 4-3h2l-1-5 1-4z" fill="#E05806"/>
<path transform="translate(598,328)" d="m0 0h1v53h-1v-11h-4v-40z" fill="#F69215"/>
<path transform="translate(311,512)" d="m0 0h7l1 7v22h-1v-5l-8 1v-23z" fill="#92C6EB"/>
<path transform="translate(319,504)" d="m0 0h1v38l-10 10-8-1 3-6-1-4 5-5h9z" fill="#5097D1"/>
<path transform="translate(489,264)" d="m0 0h2v12l-11 9-4-2h-5l-5 4 2-4 16-15z" fill="#E2E4E7"/>
<path transform="translate(463,255)" d="m0 0h7l1 3-8 7-8 8h-2v6h-4l-1-12 8-7 5-3z" fill="#DAEEF9"/>
<path transform="translate(388,382)" d="m0 0 6 2 11 4v2l2 1-3 3-3 7-13-7z" fill="#DF5606"/>
<path transform="translate(388,356)" d="m0 0h1v7l9 3 8 5 13 6-1 6-3 1-10-4-4-8-4-2-7-1-2 2z" fill="#EC760D"/>
<path transform="translate(391,338)" d="m0 0 10 5-1 12-1 5-6-1-5-4z" fill="#F48E14"/>
<path transform="translate(515,241)" d="m0 0h1l1 20 11 12 7 8 8 9v6l-5-5-11-12-7-8-4-2v10h-1z" fill="#063E79"/>
<path transform="translate(594,370)" d="m0 0h4l1 11v27l-3 4h-2z" fill="#EC770D"/>
<path transform="translate(269,520)" d="m0 0 8 2 1-2 1 1v15l-8 5h-3v-13z" fill="#3787C7"/>
<path transform="translate(648,348)" d="m0 0h1l1 28h5l1-26h1v41h-10z" fill="#DEE1E5"/>
<path transform="translate(293,474)" d="m0 0h2v20l-2-1h-7l-1 13h-1v-25z" fill="#92C6EB"/>
<path transform="translate(388,408)" d="m0 0 6 1 2 2-14 29-2 2v-20l8-1z" fill="#DF5606"/>
<path transform="translate(264,559)" d="m0 0h4v11l3 1-5 5-6 3-2 3v-21z" fill="#3786C6"/>
<path transform="translate(505,381)" d="m0 0h2l-2 18-1 3h-2l-1-11h-23l3-2z" fill="#5399D2"/>
<path transform="translate(547,383)" d="m0 0 5 2 2 1v14l-1 1h-5l-1 42h-1l-1-46-1-4z" fill="#063E79"/>
<path transform="translate(689,313)" d="m0 0 15 7-2 5-2 6-6-2-8-4 2-7z" fill="#217DC0"/>
<path transform="translate(516,286)" d="m0 0 4 2 13 12-1 4-3 3-4-2-9-8z" fill="#056BAE"/>
<path transform="translate(833,420)" d="m0 0 10 5 3 3h-3l2 6 5 4-2 6-4 2-1 3-5-10v-10l-2-1-1-4z" fill="#F9AF33"/>
<path transform="translate(321,396)" d="m0 0h1v6h2v-5h1l1 19v14l-6 2v-27z" fill="#F28812"/>
<path transform="translate(618,354)" d="m0 0h2v17l-7 2v2h-3v-17z" fill="#DEE2E5"/>
<path transform="translate(489,301)" d="m0 0h2v12l-6 5-14-1v-2l16-12h2z" fill="#D7ECF8"/>
<path transform="translate(494,325)" d="m0 0h1v7h6l1 6v19l-1-3-6 1-1-13z" fill="#92C6EB"/>
<path transform="translate(504,143)" d="m0 0 2 3 1 13 1 28v20h-1l-3-49-2 38h-1v-32l1-17z" fill="#DEECF5"/>
<path transform="translate(631,348)" d="m0 0h2v16l-7 4h-3v-16z" fill="#F7F7F7"/>
<path transform="translate(642,322)" d="m0 0h3v16l-6 3-4 1v-16z" fill="#F9FBFB"/>
<path transform="translate(512,364)" d="m0 0h4v13l-2 2-1-2-11-3h-7l-1-3z" fill="#BBD9EF"/>
<path transform="translate(396,598)" d="m0 0 2 1v7l-9 14-5 4-2-7 3-5z" fill="#05407B"/>
<path transform="translate(600,380)" d="m0 0 7 2 1 12-6 10-3 3v-20z" fill="#BEDBF0"/>
<path transform="translate(278,485)" d="m0 0h1l1 29 3-1 2 13v8l2 1-4 2h-4l-1-16z" fill="#92C6EB"/>
<path transform="translate(521,339)" d="m0 0 5 2 10 8 11 8-1 5-6-3-12-9-8-7z" fill="#04244A"/>
<path transform="translate(642,343)" d="m0 0h3v15l-8 4h-2v-15z" fill="#FAFAFA"/>
<path transform="translate(500,309)" d="m0 0h1l1 9v20h-1l-1-5-5-1v-22z" fill="#ACD4F1"/>
<path transform="translate(186,658)" d="m0 0 4 2 13 6 8 2-4 3-3 2-5-1-10-4-1-3-5-2 2-4z" fill="#06599B"/>
<path transform="translate(517,224)" d="m0 0h5l9 11 5 6-1 5-1 2h-2l-6-9-7-9-2-1-1-4z" fill="#183B62"/>
<path transform="translate(658,277)" d="m0 0 5 1 8 5-1 4-7 6h-5l-1-7z" fill="#EB750C"/>
<path transform="translate(285,514)" d="m0 0 1 3 8-1 1 2v10l-4 3h-2v2l-4 1z" fill="#3786C6"/>
<path transform="translate(280,580)" d="m0 0h1l1 7h3v20l-5 7h-1v-22z" fill="#045495"/>
<path transform="translate(519,249)" d="m0 0 5 1 10 12 7 8 2 3v6l-5-5-10-11-9-13z" fill="#063E79"/>
<path transform="translate(644,363)" d="m0 0h1v16l-9 4v-15z" fill="#E7E7E8"/>
<path transform="translate(667,340)" d="m0 0 6 1 3 2 1 15-6-1-4-2z" fill="#3988C7"/>
<path transform="translate(536,243)" d="m0 0 8 8v2h2l6 9h-3l-2 2-3-1-11-14v-3h2z" fill="#1C5288"/>
<path transform="translate(679,326)" d="m0 0 6 2 3 2v13l-5-1-5-3v-12z" fill="#3586C6"/>
<path transform="translate(529,426)" d="m0 0 2 4 1 3h3 1v12l-1 14h-2l-2-5-2-16z" fill="#063E79"/>
<path transform="translate(353,449)" d="m0 0h5l3 9-3 3 5-2-4 10h-4v2h-2z" fill="#ED790E"/>
<path transform="translate(700,356)" d="m0 0 9 3v16l-9-5z" fill="#0A72B6"/>
<path transform="translate(268,490)" d="m0 0h1l-1 20-1 2-7 1-1 2v-12l1-5 7-1z" fill="#AAD3F0"/>
<path transform="translate(561,409)" d="m0 0 2 4-1 4 5-1 3-1v2l-4 4-2 8 6-4h2v5l-6 4-6-4v-20z" fill="#04599B"/>
<path transform="translate(618,334)" d="m0 0h2v15l-9 3v-15z" fill="#FCFCFC"/>
<path transform="translate(655,277)" d="m0 0h1v15l-4 1 1-2-15-3 4-4z" fill="#FEFEFE"/>
<path transform="translate(568,757)" d="m0 0h6l2 4v3l2 1h-22l1-6z" fill="#053D77"/>
<path transform="translate(667,360)" d="m0 0 5 1 4 2 1 7v7l-7-2-3-2z" fill="#3686C6"/>
<path transform="translate(618,375)" d="m0 0h2v16h-9l-1-4v-7l6-3h2z" fill="#DFE2E5"/>
<path transform="translate(412,351)" d="m0 0 5 2 1 5-2 10-5-1-5-2 2-1 1-10z" fill="#EC760D"/>
<path transform="translate(422,549)" d="m0 0 1 4-9 17-8 14-6 8-2-3 1-4 5-2 3-9 5-8 6-10 3-6z" fill="#84BCE5"/>
<path transform="translate(311,498)" d="m0 0h7l1 6v15h-1l-1-6h-5l-2 1v-15z" fill="#ACD4F1"/>
<path transform="translate(630,328)" d="m0 0h2v16l-5 3h-3v-16z" fill="#FDFDFD"/>
<path transform="translate(264,578)" d="m0 0 4 1v8l-1 4-7 3-2 2-1-12 4-4z" fill="#045A9C"/>
<path transform="translate(363,408)" d="m0 0 1 2 6 1v15l-6 4h-2z" fill="#FEA319"/>
<path transform="translate(700,376)" d="m0 0 6 1 3 2v12h-9z" fill="#066EB1"/>
<path transform="translate(220,677)" d="m0 0h23l-2 1v4 1h-20l-2-2h2z" fill="#3786C6"/>
<path transform="translate(586,390)" d="m0 0h1l1 11h5l1 2v11l-1 2-5 1-1-2-1-10z" fill="#87BEE5"/>
<path transform="translate(346,343)" d="m0 0 4 2 2 4-11 7-5-1-2-1 1-4z" fill="#F19538"/>
<path transform="translate(610,636)" d="m0 0 4 2-15 5-11 3h-8l-1-2 15-5 10-2h5z" fill="#F5F8FB"/>
<path transform="translate(334,426)" d="m0 0 3 1-3 6-11 6h-6l1-7 14-5z" fill="#082C53"/>
<path transform="translate(494,254)" d="m0 0h1v27h-1l-1-8-2 3v-12l-6 4h-4l1-4 6-5 6 1z" fill="#ABD3F0"/>
<path transform="translate(411,562)" d="m0 0 1 3-12 16-9 11-4 4-1-2 2-5 10-12 5-5 3-4h2l2-5z" fill="#05437F"/>
<path transform="translate(174,656)" d="m0 0 4 2 4 4 6 3v2h-2l2 4 4 4-5-1-9-6-4-7z" fill="#056DB0"/>
<path transform="translate(545,356)" d="m0 0h3v21l-8-6-3-3 1-2h2l1-5 2-1 3 1 1-4z" fill="#063E79"/>
<path transform="translate(428,531)" d="m0 0h1v15h-3l-3 4-3 3-3 5h-3l2-5 10-19z" fill="#0A6FB3"/>
<path transform="translate(345,427)" d="m0 0h2v6l-1-2-7 2-4 8-7 2-3-2-1-2 8-6z" fill="#0C71B4"/>
<path transform="translate(351,418)" d="m0 0h2v8l-5 2-6 1-7 3 1-7z" fill="#05417D"/>
<path transform="translate(730,396)" d="m0 0h14l17 2 2 1 16 2 4 3h-8l-23-4-21-2z" fill="#F8A72C"/>
<path transform="translate(668,321)" d="m0 0 6 2 2 1v14l-6-2-2-1z" fill="#5399D2"/>
<path transform="translate(506,380)" d="m0 0h3l1 6 4-1 1 3v15l-2-2-4 2-1-7v-15z" fill="#92C6EB"/>
<path transform="translate(523,322)" d="m0 0 7 4 13 12v5l-8-6-14-12 2-1z" fill="#04244A"/>
<path transform="translate(667,379)" d="m0 0 6 1 4 2 1 9h-10l-1-2z" fill="#2580C2"/>
<path transform="translate(700,337)" d="m0 0 6 2 2 1 1 14-6-2-3-2z" fill="#237FC2"/>
<path transform="translate(156,611)" d="m0 0h2l-3 9-4 10h-6l1-5 6-12z" fill="#2A5C8E"/>
<path transform="translate(295,513)" d="m0 0 5 3 1 15-1 2-6 1v-3l-2-1 2-2z" fill="#92C6EB"/>
<path transform="translate(332,352)" d="m0 0h2v2l5 2-5 4-5 2-1 2-4 1-3-6z" fill="#F7A235"/>
<path transform="translate(608,343)" d="m0 0h1l1 11 3-1-1 4-1 1-1 17h-1v18h-2v-38z" fill="#92C6EB"/>
<path transform="translate(690,331)" d="m0 0 8 4v13l-6-2-2-7z" fill="#237FC2"/>
<path transform="translate(295,534)" d="m0 0h1v13l-2-3-3 3h-4l-1 7h-1v-14l7-4z" fill="#0B72B6"/>
<path transform="translate(535,394)" d="m0 0 6 1v16l-2-1-4 2z" fill="#063E79"/>
<path transform="translate(414,558)" d="m0 0h3l-2 5-6 10-2 2-2 8-3 3h-3l-3 1 2-5 9-11 5-9z" fill="#4E97D0"/>
<path transform="translate(667,316)" d="m0 0 11 4 6 3-3 3-3 1-1 11h-1v-14l-6-2-2-1v10h-1z" fill="#0E74B8"/>
<path transform="translate(387,408)" d="m0 0h1v13l-8 1v-12h7z" fill="#EC760D"/>
<path transform="translate(579,396)" d="m0 0h4v8l3 2-5 5-5 1v-3l1-12z" fill="#92C6EB"/>
<path transform="translate(594,373)" d="m0 0h1v21l3 1 1 13-3 4h-2z" fill="#DF5606"/>
<path transform="translate(464,378)" d="m0 0h3v13h-1l-1-6-10 5h-2l1-6z" fill="#2D84C5"/>
<path transform="translate(829,420)" d="m0 0h4l4 6-1 2 3 1v8l-3-1-7-8-2-3 4-1z" fill="#F99C1B"/>
<path transform="translate(369,439)" d="m0 0h1l2 10 4 1-2 6-4 5-1-5v-8l-7 1 2-5 4-1z" fill="#F18612"/>
<path transform="translate(450,384)" d="m0 0h4l-1 6 12-6h1v7h-18v-6z" fill="#63A5D9"/>
<path transform="translate(307,554)" d="m0 0h2v11l2 5-1 2h-2l-2-13-5 1v6h-7l-1-3z" fill="#04599B"/>
<path transform="translate(514,307)" d="m0 0h1l1 8 8 6-1 3-3 1-4-2v8l-2 2z" fill="#063E79"/>
<path transform="translate(246,676)" d="m0 0 4 1-1 5 6 1v1h-31v-1l14-1 5-5z" fill="#1776B9"/>
<path transform="translate(503,386)" d="m0 0h2v13l-1 3h-2l-1-11h-13v-1z" fill="#92C6EB"/>
<path transform="translate(646,362)" d="m0 0 2 1v27h-3v-8l-2-1 1-2z" fill="#86BDE6"/>
<path transform="translate(253,478)" d="m0 0h1v51h2l2 4v4l-5-1z" fill="#04244A"/>
<path transform="translate(516,304)" d="m0 0 4 2 8 7-1 2-5-1-2 1 3 2-4 1-3-3z" fill="#056AAD"/>
<path transform="translate(657,379)" d="m0 0 8 4v8h-8z" fill="#237FC2"/>
<path transform="translate(453,263)" d="m0 0h2v4 2h2l-2 4h-2v6h-4l-1-12z" fill="#E1E2E4"/>
<path transform="translate(573,423)" d="m0 0 2 1 2 12-3 1-7 1-2 1v-5l6-4z" fill="#0567AA"/>
<path transform="translate(784,404)" d="m0 0h12l12 4v1h-6v2l-11-3-7-2z" fill="#F4A74C"/>
<path transform="translate(496,354)" d="m0 0h5l1 9-4 2h-4v-10z" fill="#5399D2"/>
<path transform="translate(631,324)" d="m0 0 2 1v18h-1v-15l-6 3h-2l1 17h-2l-1-20 5-3z" fill="#D0E2EF"/>
<path transform="translate(295,499)" d="m0 0 4 1 1 2v14h-4l-1-3z" fill="#ACD4F1"/>
<path transform="translate(276,544)" d="m0 0h3v7l-3 3-6 1-1-6z" fill="#0770B4"/>
<path transform="translate(459,366)" d="m0 0 9 1-4 4-8 4h-3v-6z" fill="#3F8CCA"/>
<path transform="translate(545,264)" d="m0 0 4 3v27h-1v-22l-6 1-2-4z" fill="#045799"/>
<path transform="translate(308,534)" d="m0 0 1 3-4 4 1 5-5 5h-2l2-15h7z" fill="#0670B4"/>
<path transform="translate(507,381)" d="m0 0h1v17l-2 3-1 12-2-4-1-7h2l2-18z" fill="#2D82C3"/>
<path transform="translate(280,500)" d="m0 0 4 2v14l-4-2-1 2v-14z" fill="#ACD4F1"/>
<path transform="translate(508,396)" d="m0 0h1l1 6 4-2 1 3v8h-6l-1-2z" fill="#448FCC"/>
<path transform="translate(284,571)" d="m0 0h1v16l-4 1-1-15-2-1 6 1z" fill="#056FB3"/>
<path transform="translate(655,276)" d="m0 0h2v17l-2 5 2 1-5 2h-4l-1-4 5-3h2l1-5z" fill="#F18A19"/>
<path transform="translate(254,675)" d="m0 0h7l-4 1 1 6-1 1h-11l3-1v-6z" fill="#3686C6"/>
<path transform="translate(237,710)" d="m0 0h5l-6 6h-17v-1z" fill="#045394"/>
<path transform="translate(241,528)" d="m0 0h4l-1 3-10 8h-4l-2-2 12-8z" fill="#6591BA"/>
<path transform="translate(605,370)" d="m0 0 2 2v10h-5l-1-1v-10z" fill="#E3E3E4"/>
<path transform="translate(679,384)" d="m0 0 6 1 6 4v2h-12z" fill="#2680C2"/>
<path transform="translate(469,377)" d="m0 0h2v2h2v2h-2v11h-4v-14z" fill="#04254B"/>
<path transform="translate(665,349)" d="m0 0h1v6l5 1-1 4h-3l-1 31h-1z" fill="#0670B4"/>
<path transform="translate(198,560)" d="m0 0 2 1-18 18-4 3-2-1 5-6 8-7z" fill="#76A9D0"/>
<path transform="translate(293,657)" d="m0 0 4 1v3h2v2l-5 2-4-1-2-2-3-1z" fill="#062E58"/>
<path transform="translate(379,444)" d="m0 0 2 3v7l-4 4-3 1 1-7z" fill="#05407C"/>
<path transform="translate(570,401)" d="m0 0h2v8l-3 3-4 1v-9z" fill="#92C6EB"/>
<path transform="translate(463,333)" d="m0 0 1 2 3 1-12 9h-1v-6z" fill="#549AD3"/>
<path transform="translate(520,725)" d="m0 0 6 1-4 2-19 4h-6l3-2z" fill="#F69115"/>
<path transform="translate(383,597)" d="m0 0 2 2-11 12-2-1 2-5 7-7z" fill="#05427E"/>
<path transform="translate(308,527)" d="m0 0h1v7l-1 2-6 1-1 6h-1v-12h3 4z" fill="#2881C3"/>
<path transform="translate(712,426)" d="m0 0 3 1 1 7-2 5-4 1 1-10z" fill="#045495"/>
<path transform="translate(757,399)" d="m0 0 17 1 9 3v1h-8l-16-3z" fill="#EE851A"/>
<path transform="translate(493,349)" d="m0 0h1v16l2 1-5 1v-16z" fill="#2F83C3"/>
<path transform="translate(321,417)" d="m0 0 1 2 3-1v13l-4 1z" fill="#DF5606"/>
<path transform="translate(833,420)" d="m0 0 10 5 3 3h-3l-1 4-6-4-1-4z" fill="#F29D46"/>
<path transform="translate(561,409)" d="m0 0 2 4-1 4 5-1 3-1v2l-4 4-2 4-2-3h-2v-12z" fill="#0670B4"/>
<path transform="translate(642,380)" d="m0 0 2 1 1 1v8l-3-1v-4l-4 2-1 2h-2v-5h2v-2z" fill="#A1CDEE"/>
<path transform="translate(356,430)" d="m0 0h1v11l2 1-6 2v-10z" fill="#FEA319"/>
<path transform="translate(559,398)" d="m0 0h2l-1 32h-1l-1-16v-12z" fill="#054481"/>
<path transform="translate(395,402)" d="m0 0h4l-1 5-2 3-8-2 3-1 2-4z" fill="#EB750C"/>
<path transform="translate(321,387)" d="m0 0h4v10l-1 5h-2l-1-6z" fill="#F58F15"/>
<path transform="translate(600,318)" d="m0 0 2 1-3 3 1 5-5 3h-1v-8z" fill="#F29633"/>
<path transform="translate(699,388)" d="m0 0 1 3h17v1h-39v-1l19-1z" fill="#063E79"/>
<path transform="translate(621,310)" d="m0 0 3 3v2l-7 4-2-1-1-4z" fill="#F18816"/>
<path transform="translate(516,241)" d="m0 0 5 5 2 3-5 1-1 11h-1z" fill="#045799"/>
<path transform="translate(540,720)" d="m0 0m-5 1h5l-1 3-8 2h-8l2-2z" fill="#FB9B17"/>
<path transform="translate(321,409)" d="m0 0 1 3h2l1-2 1 6v14h-1l-1-11h-2l-1-2z" fill="#ED7B0E"/>
<path transform="translate(643,383)" d="m0 0 1 3-1 3 3 2h-13l4-2 1-3z" fill="#C6DCEC"/>
<path transform="translate(602,318)" d="m0 0 5 2-2 5-6 1-1-4 3-1z" fill="#EF8012"/>
<path transform="translate(385,723)" d="m0 0 2 1v2l-20 4-4-1z" fill="#093C6D"/>
<path transform="translate(285,524)" d="m0 0 1 3h6l1 3-4 1v2l-4 1z" fill="#2982C3"/>
<path transform="translate(359,440)" d="m0 0 2 1-2 1zm-2 2h2v10l-1-3h-5v-5z" fill="#F69215"/>
<path transform="translate(534,315)" d="m0 0 6 3 3 3v5l-7-6-3-4z" fill="#04244A"/>
<path transform="translate(295,533)" d="m0 0h5v10l-3 1z" fill="#5399D2"/>
<path transform="translate(369,439)" d="m0 0h1v8l-7 2-1-2 4-4h2z" fill="#EC780D"/>
<path transform="translate(507,398)" d="m0 0h1v14l-3 1v-12z" fill="#0670B4"/>
<path transform="translate(186,658)" d="m0 0 6 3-1 2-3 3-5-3 2-4z" fill="#06417D"/>
<path transform="translate(572,429)" d="m0 0 1 4-4 4-4 2v-5z" fill="#3887C7"/>
<path transform="translate(594,364)" d="m0 0 5 2v15h-1v-11h-4z" fill="#F08311"/>
<path transform="translate(750,753)" d="m0 0 8 6 6 4 1 4-9-6-6-6z" fill="#DFEDF7"/>
<path transform="translate(341,411)" d="m0 0h1v5l-7 2v-6z" fill="#FEA319"/>
<path transform="translate(336,351)" d="m0 0h5l3 3-3 2-5-1-2-1v-2z" fill="#F18815"/>
<path transform="translate(453,738)" d="m0 0h10l-2 2-14 2 2-3z" fill="#EC760D"/>
<path transform="translate(420,546)" d="m0 0 2 2-4 9-4 1 2-5z" fill="#075C9E"/>
<path transform="translate(774,400)" d="m0 0 10 1 8 2v1l-12 1-1-3-5-1z" fill="#FAD7A6"/>
<path transform="translate(241,528)" d="m0 0h4l-1 3-9 7v-3l1-2h3l1-4z" fill="#356998"/>
<path transform="translate(581,412)" d="m0 0 2 1-1 6-5-1 1-5z" fill="#92C6EB"/>
<path transform="translate(405,386)" d="m0 0 6 2 4 3h-8l-2-1v-2l-3-1z" fill="#EE7E0F"/>
<path transform="translate(507,381)" d="m0 0h1v14l-3 3v-9z" fill="#3887C7"/>
<path transform="translate(464,378)" d="m0 0h3v13h-1l-1-10-6 1 3-3z" fill="#3687C6"/>
<path transform="translate(361,459)" d="m0 0 2 1-4 7h-5v-3z" fill="#F69215"/>
<path transform="translate(356,409)" d="m0 0 1 4-8 3v-6h6z" fill="#FEA319"/>
<path transform="translate(600,365)" d="m0 0 2 2 4 1-1 3h-4v9h-1z" fill="#DBEFFA"/>
<path transform="translate(277,585)" d="m0 0h2v7h-4l-1-4z" fill="#04244A"/>
<path transform="translate(353,449)" d="m0 0h5l1 6-1-2-3 1-2 3z" fill="#F08311"/>
<path transform="translate(802,408)" d="m0 0 7 1 1 2-1 2-6-1-2-3z" fill="#F38D17"/>
<path transform="translate(625,308)" d="m0 0 2 1 3 1v2l-4 2-4-1 1-4z" fill="#EE7E12"/>
<path transform="translate(661,619)" d="m0 0 2 1-9 6-3 1 1-4z" fill="#0A3A69"/>
<path transform="translate(411,562)" d="m0 0 1 3-6 8-2-1 2-4h2l2-5z" fill="#064D8B"/>
<path transform="translate(247,749)" d="m0 0" fill="#FEFEFE"/>
</svg>
